<svg xmlns="http://www.w3.org/2000/svg" version="1.1" xmlns:xlink="http://www.w3.org/1999/xlink" xmlns:svgjs="http://svgjs.com/svgjs" width="256.000000pt" height="256.000000pt"><svg version="1.0" xmlns="http://www.w3.org/2000/svg" width="256.000000pt" height="256.000000pt" viewBox="0 0 256.000000 256.000000" preserveAspectRatio="xMidYMid meet">

<g transform="translate(0.000000,256.000000) scale(0.100000,-0.100000)" fill="#000000" stroke="none">
<path d="M0 1280 l0 -1280 1280 0 1280 0 0 1280 0 1280 -1280 0 -1280 0 0
-1280z m1310 1006 c0 -2 6 -37 14 -78 17 -88 39 -147 80 -211 29 -44 37 -50
116 -77 46 -16 104 -43 127 -60 24 -16 48 -30 54 -30 11 0 220 102 260 127 30
19 59 12 59 -14 0 -10 -14 -34 -30 -53 -17 -19 -46 -69 -65 -110 -20 -41 -42
-87 -50 -102 -13 -25 -11 -33 19 -100 19 -40 40 -99 47 -131 12 -55 14 -58 63
-81 43 -20 105 -41 256 -85 28 -9 34 -39 10 -52 -8 -4 -54 -14 -101 -23 -47
-9 -115 -29 -151 -45 -63 -29 -66 -32 -77 -78 -7 -26 -28 -79 -47 -117 l-35
-69 22 -56 c39 -102 84 -194 112 -229 56 -71 19 -112 -48 -53 -19 16 -81 55
-139 86 -58 31 -108 60 -110 64 -3 4 -44 -12 -92 -35 -47 -24 -104 -46 -125
-49 -40 -7 -50 -15 -80 -68 -38 -64 -58 -117 -75 -196 -16 -76 -35 -104 -56
-83 -4 4 -17 44 -28 87 -11 44 -39 118 -62 164 -43 84 -44 85 -93 97 -71 17
-127 38 -173 68 -23 14 -44 22 -47 17 -3 -6 -52 -34 -108 -65 -57 -30 -119
-69 -138 -86 -37 -32 -72 -36 -77 -7 -2 9 12 39 31 65 42 57 73 118 98 190 10
30 23 60 29 67 7 8 1 30 -21 72 -17 33 -41 89 -53 124 l-22 64 -74 32 c-41 17
-111 37 -155 44 -44 7 -86 18 -93 24 -22 20 -3 41 51 55 96 24 198 59 236 81
32 18 40 29 49 70 7 27 28 85 48 129 l37 79 -18 38 c-45 99 -73 151 -108 198
-59 79 -31 113 48 56 39 -28 215 -111 235 -111 5 0 33 15 62 33 43 28 145 69
205 83 20 5 90 164 108 244 9 41 19 81 21 88 3 11 54 18 54 8z m-366 -38 c24
-34 20 -73 -10 -97 -15 -12 -34 -21 -44 -21 -31 0 -70 39 -70 70 0 62 90 96
124 48z m778 5 c11 -10 18 -30 18 -54 0 -32 -5 -41 -30 -54 -40 -21 -57 -19
-85 10 -30 30 -31 54 -4 89 24 31 72 35 101 9z m-1617 -997 c30 -45 -13 -82
-69 -60 -19 7 -21 55 -4 72 20 20 56 14 73 -12z m2421 16 c6 -4 14 -17 18 -28
12 -38 -33 -65 -78 -48 -19 7 -21 55 -4 72 13 13 47 16 64 4z"></path>
<path d="M1200 1820 c-176 -30 -318 -132 -398 -289 -46 -89 -62 -155 -61 -254
2 -242 168 -463 393 -523 80 -22 235 -18 309 7 180 60 305 192 361 378 18 62
21 202 5 270 -19 84 -77 185 -144 252 -131 131 -297 188 -465 159z m240 -110
c57 -24 150 -88 179 -122 9 -11 22 -26 29 -34 27 -29 74 -146 83 -208 20 -145
-27 -284 -133 -389 -68 -68 -119 -97 -213 -122 -287 -74 -559 148 -558 455 0
73 5 97 32 162 54 129 186 246 314 279 62 16 207 4 267 -21z"></path>
<path d="M1210 1469 c-13 -5 -39 -21 -58 -35 l-33 -26 -34 26 c-41 32 -46 32
-64 4 -12 -20 -10 -24 27 -55 38 -31 40 -36 31 -61 -6 -15 -8 -52 -4 -84 6
-55 5 -58 -25 -80 -20 -14 -30 -29 -28 -43 4 -29 36 -31 64 -4 21 19 28 21 42
11 38 -26 89 -50 124 -56 48 -9 118 9 153 40 34 29 33 29 65 4 32 -25 57 -25
69 -1 9 16 5 23 -22 44 l-33 25 1 92 c1 92 1 92 35 120 23 19 31 32 27 44 -11
28 -35 29 -71 1 l-34 -26 -46 32 c-36 26 -58 33 -103 36 -32 1 -69 -2 -83 -8z
m156 -100 c37 -36 57 -89 48 -126 -8 -29 -15 -29 -51 0 -15 13 -61 45 -101 71
-63 41 -71 50 -60 63 36 44 114 40 164 -8z m-126 -124 c36 -23 78 -49 93 -59
23 -14 26 -20 17 -31 -36 -43 -147 -16 -183 44 -20 35 -24 106 -4 95 6 -4 41
-26 77 -49z"></path>
</g>
</svg><style>@media (prefers-color-scheme: light) { :root { filter: none; } }
@media (prefers-color-scheme: dark) { :root { filter: invert(100%); } }
</style></svg>